<svg width="160" height="185" viewBox="0 0 160 185" role="img"><title>Circle offline mode</title><desc>Eight cheerful diverse people standing in a warm circle together</desc>

  <!-- Warm glow in center -->
  <circle cx="80" cy="92" r="38" fill="#fef9c3" opacity="0.6"></circle>
  <circle cx="80" cy="92" r="26" fill="#fef3c7" opacity="0.5"></circle>

  <!-- Person TOP (red shirt, curly) -->
  <g transform="translate(63,6)">
    <rect x="7" y="26" width="18" height="16" rx="5" fill="#ef4444"></rect>
    <path d="M7 30 Q2 28 2 22" fill="none" stroke="#ef4444" stroke-width="3.5" stroke-linecap="round"></path>
    <path d="M25 30 Q30 28 30 22" fill="none" stroke="#ef4444" stroke-width="3.5" stroke-linecap="round"></path>
    <rect x="9" y="41" width="5" height="10" rx="2.5" fill="#1e40af"></rect>
    <rect x="17" y="41" width="5" height="10" rx="2.5" fill="#1e40af"></rect>
    <circle cx="16" cy="16" r="10" fill="#FBBF24" stroke="#D97706" stroke-width="1"></circle>
    <circle cx="9" cy="9" r="5" fill="#7c3aed"></circle>
    <circle cx="16" cy="7" r="5" fill="#7c3aed"></circle>
    <circle cx="23" cy="9" r="5" fill="#7c3aed"></circle>
    <circle cx="12" cy="8" r="4" fill="#7c3aed"></circle>
    <circle cx="20" cy="8" r="4" fill="#7c3aed"></circle>
    <circle cx="12" cy="15" r="1.8" fill="#1c1917"></circle>
    <circle cx="20" cy="15" r="1.8" fill="#1c1917"></circle>
    <path d="M12 20 Q16 23 20 20" fill="none" stroke="#92400e" stroke-width="1.3" stroke-linecap="round"></path>
  </g>

  <!-- Person TOP-RIGHT (orange, red bob) -->
  <g transform="translate(108,22)">
    <rect x="7" y="26" width="18" height="16" rx="5" fill="#f97316"></rect>
    <path d="M7 30 Q1 28 0 22" fill="none" stroke="#f97316" stroke-width="3.5" stroke-linecap="round"></path>
    <circle cx="0" cy="21" r="3.5" fill="#FBBF24" stroke="#D97706" stroke-width="1"></circle>
    <path d="M25 32 Q30 36 29 42" fill="none" stroke="#f97316" stroke-width="3.5" stroke-linecap="round"></path>
    <rect x="9" y="41" width="5" height="10" rx="2.5" fill="#9a3412"></rect>
    <rect x="17" y="41" width="5" height="10" rx="2.5" fill="#9a3412"></rect>
    <circle cx="16" cy="16" r="10" fill="#fcd34d" stroke="#D97706" stroke-width="1"></circle>
    <path d="M6 16 Q6 7 16 6 Q26 7 26 16 Q26 11 16 10 Q6 11 6 16Z" fill="#dc2626"></path>
    <circle cx="12" cy="15" r="1.8" fill="#1c1917"></circle>
    <circle cx="20" cy="15" r="1.8" fill="#1c1917"></circle>
    <path d="M12 20 Q16 24 20 20" fill="none" stroke="#92400e" stroke-width="1.3" stroke-linecap="round"></path>
  </g>

  <!-- Person RIGHT (teal, dark hair) -->
  <g transform="translate(126,68)">
    <rect x="7" y="26" width="18" height="16" rx="5" fill="#14b8a6"></rect>
    <path d="M7 30 Q1 28 0 22" fill="none" stroke="#14b8a6" stroke-width="3.5" stroke-linecap="round"></path>
    <path d="M25 30 Q31 32 31 38" fill="none" stroke="#14b8a6" stroke-width="3.5" stroke-linecap="round"></path>
    <rect x="9" y="41" width="5" height="10" rx="2.5" fill="#0f766e"></rect>
    <rect x="17" y="41" width="5" height="10" rx="2.5" fill="#0f766e"></rect>
    <circle cx="16" cy="16" r="10" fill="#FBBF24" stroke="#D97706" stroke-width="1"></circle>
    <path d="M6 14 Q6 6 16 5 Q26 6 26 14 Q26 9 16 8 Q6 9 6 14Z" fill="#1e3a8a"></path>
    <circle cx="12" cy="15" r="1.8" fill="#1c1917"></circle>
    <circle cx="20" cy="15" r="1.8" fill="#1c1917"></circle>
    <path d="M12 20 Q16 24 20 20" fill="none" stroke="#92400e" stroke-width="1.3" stroke-linecap="round"></path>
  </g>

  <!-- Person BOTTOM-RIGHT (yellow shirt, green spiky) -->
  <g transform="translate(108,118)">
    <rect x="7" y="26" width="18" height="16" rx="5" fill="#eab308"></rect>
    <path d="M7 30 Q1 32 1 38" fill="none" stroke="#eab308" stroke-width="3.5" stroke-linecap="round"></path>
    <path d="M25 28 Q31 24 31 18" fill="none" stroke="#eab308" stroke-width="3.5" stroke-linecap="round"></path>
    <circle cx="31" cy="17" r="3.5" fill="#FBBF24" stroke="#D97706" stroke-width="1"></circle>
    <rect x="9" y="41" width="5" height="10" rx="2.5" fill="#a16207"></rect>
    <rect x="17" y="41" width="5" height="10" rx="2.5" fill="#a16207"></rect>
    <circle cx="16" cy="16" r="10" fill="#FBBF24" stroke="#D97706" stroke-width="1"></circle>
    <polygon points="16,3 12,12 16,9 20,12" fill="#166534"></polygon>
    <polygon points="9,6 7,15 11,11 12,15" fill="#166534"></polygon>
    <polygon points="23,6 21,15 25,11 24,15" fill="#166534"></polygon>
    <circle cx="12" cy="15" r="1.8" fill="#1c1917"></circle>
    <circle cx="20" cy="15" r="1.8" fill="#1c1917"></circle>
    <path d="M12 20 Q16 24 20 20" fill="none" stroke="#92400e" stroke-width="1.3" stroke-linecap="round"></path>
  </g>

  <!-- Person BOTTOM (pink shirt, brown hair) -->
  <g transform="translate(63,140)">
    <rect x="7" y="26" width="18" height="16" rx="5" fill="#ec4899"></rect>
    <path d="M7 28 Q1 24 1 18" fill="none" stroke="#ec4899" stroke-width="3.5" stroke-linecap="round"></path>
    <circle cx="1" cy="17" r="3.5" fill="#FBBF24" stroke="#D97706" stroke-width="1"></circle>
    <path d="M25 28 Q31 24 31 18" fill="none" stroke="#ec4899" stroke-width="3.5" stroke-linecap="round"></path>
    <circle cx="31" cy="17" r="3.5" fill="#FBBF24" stroke="#D97706" stroke-width="1"></circle>
    <rect x="9" y="41" width="5" height="10" rx="2.5" fill="#9f1239"></rect>
    <rect x="17" y="41" width="5" height="10" rx="2.5" fill="#9f1239"></rect>
    <circle cx="16" cy="16" r="10" fill="#FBBF24" stroke="#D97706" stroke-width="1"></circle>
    <circle cx="9" cy="9" r="5" fill="#92400e"></circle>
    <circle cx="16" cy="7" r="5" fill="#92400e"></circle>
    <circle cx="23" cy="9" r="5" fill="#92400e"></circle>
    <circle cx="12" cy="8" r="4" fill="#92400e"></circle>
    <circle cx="20" cy="8" r="4" fill="#92400e"></circle>
    <circle cx="12" cy="15" r="1.8" fill="#1c1917"></circle>
    <circle cx="20" cy="15" r="1.8" fill="#1c1917"></circle>
    <path d="M12 20 Q16 24 20 20" fill="none" stroke="#92400e" stroke-width="1.3" stroke-linecap="round"></path>
  </g>

  <!-- Person BOTTOM-LEFT (blue, dark navy hair) -->
  <g transform="translate(18,118)">
    <rect x="7" y="26" width="18" height="16" rx="5" fill="#3b82f6"></rect>
    <path d="M25 30 Q31 32 31 38" fill="none" stroke="#3b82f6" stroke-width="3.5" stroke-linecap="round"></path>
    <path d="M7 28 Q1 24 0 18" fill="none" stroke="#3b82f6" stroke-width="3.5" stroke-linecap="round"></path>
    <circle cx="0" cy="17" r="3.5" fill="#FBBF24" stroke="#D97706" stroke-width="1"></circle>
    <rect x="9" y="41" width="5" height="10" rx="2.5" fill="#1e40af"></rect>
    <rect x="17" y="41" width="5" height="10" rx="2.5" fill="#1e40af"></rect>
    <circle cx="16" cy="16" r="10" fill="#fcd34d" stroke="#D97706" stroke-width="1"></circle>
    <path d="M6 14 Q6 6 16 5 Q26 6 26 14 Q26 9 16 8 Q6 9 6 14Z" fill="#1c1917"></path>
    <circle cx="12" cy="15" r="1.8" fill="#1c1917"></circle>
    <circle cx="20" cy="15" r="1.8" fill="#1c1917"></circle>
    <path d="M12 20 Q16 24 20 20" fill="none" stroke="#92400e" stroke-width="1.3" stroke-linecap="round"></path>
  </g>

  <!-- Person LEFT (green, red hair) -->
  <g transform="translate(2,68)">
    <rect x="7" y="26" width="18" height="16" rx="5" fill="#22c55e"></rect>
    <path d="M25 30 Q32 28 33 22" fill="none" stroke="#22c55e" stroke-width="3.5" stroke-linecap="round"></path>
    <circle cx="33" cy="21" r="3.5" fill="#FBBF24" stroke="#D97706" stroke-width="1"></circle>
    <path d="M7 30 Q1 34 2 40" fill="none" stroke="#22c55e" stroke-width="3.5" stroke-linecap="round"></path>
    <rect x="9" y="41" width="5" height="10" rx="2.5" fill="#166534"></rect>
    <rect x="17" y="41" width="5" height="10" rx="2.5" fill="#166534"></rect>
    <circle cx="16" cy="16" r="10" fill="#FBBF24" stroke="#D97706" stroke-width="1"></circle>
    <path d="M6 18 Q6 8 16 7 Q26 8 26 18 Q26 12 16 11 Q6 12 6 18Z" fill="#dc2626"></path>
    <circle cx="12" cy="15" r="1.8" fill="#1c1917"></circle>
    <circle cx="20" cy="15" r="1.8" fill="#1c1917"></circle>
    <path d="M12 20 Q16 24 20 20" fill="none" stroke="#92400e" stroke-width="1.3" stroke-linecap="round"></path>
  </g>

  <!-- Person TOP-LEFT (purple, dark skin) -->
  <g transform="translate(18,22)">
    <rect x="7" y="26" width="18" height="16" rx="5" fill="#8b5cf6"></rect>
    <path d="M25 28 Q32 24 32 18" fill="none" stroke="#8b5cf6" stroke-width="3.5" stroke-linecap="round"></path>
    <circle cx="32" cy="17" r="3.5" fill="#FBBF24" stroke="#D97706" stroke-width="1"></circle>
    <path d="M7 32 Q1 36 2 42" fill="none" stroke="#8b5cf6" stroke-width="3.5" stroke-linecap="round"></path>
    <rect x="9" y="41" width="5" height="10" rx="2.5" fill="#4c1d95"></rect>
    <rect x="17" y="41" width="5" height="10" rx="2.5" fill="#4c1d95"></rect>
    <circle cx="16" cy="16" r="10" fill="#d97706" stroke="#92400e" stroke-width="1"></circle>
    <path d="M6 13 Q6 5 16 4 Q26 5 26 13 Q26 8 16 7 Q6 8 6 13Z" fill="#1c1917"></path>
    <circle cx="12" cy="15" r="1.8" fill="#1c1917"></circle>
    <circle cx="20" cy="15" r="1.8" fill="#1c1917"></circle>
    <path d="M12 20 Q16 24 20 20" fill="none" stroke="#92400e" stroke-width="1.3" stroke-linecap="round"></path>
  </g>

</svg>